<svg width="3196" height="1348" viewBox="0 0 3196 1348" fill="none" xmlns="http://www.w3.org/2000/svg">
<g clip-path="url(#clip0_6_421)">
<rect width="3195.26" height="1348" fill="#121214"/>
<g opacity="0.1">
<path fill-rule="evenodd" clip-rule="evenodd" d="M2803.02 56.7635C2803.02 56.7635 2869.5 116.307 2909.01 139.458C2948.52 162.609 2970.17 152.688 2970.17 152.688C2970.17 152.688 3005.06 162.868 3026.41 179.279C3047.75 195.691 3051.22 208.153 3064.45 224.694C3077.69 241.235 3118.12 236.702 3118.12 236.702L3210.31 284.54L3304.01 336.641C3304.01 336.641 3211.31 282.312 3201.51 265.771C3191.71 249.23 3115.57 189.081 3102.34 172.54C3089.11 155.999 3070.91 159.309 3057.68 136.158C3044.45 113.007 3029.57 86.5351 3008.06 66.6946C2986.56 46.8432 2941.95 17.0716 2917.94 3.84095C2893.94 -9.38969 2855.9 -22.6203 2855.9 -22.6203L2789.75 -37.5061L2725.25 -72.7626H2429.2C2429.2 -72.7626 2574.41 27.0027 2640.4 51.8088C2665.37 61.1881 2803.03 56.7743 2803.03 56.7743L2803.02 56.7635Z" fill="#633BBC"/>
<path fill-rule="evenodd" clip-rule="evenodd" d="M1337.11 365.113C1337.11 365.113 1387.14 397.827 1401.13 409.813C1415.12 421.8 1461.06 427.133 1470.06 430.465C1479.06 433.797 1500.63 463.774 1500.63 463.774C1500.63 463.774 1513.06 485.941 1516.04 501.833C1519.03 517.725 1558.92 535.715 1558.92 535.715L1596.78 551.705C1596.78 551.705 1538.12 485.757 1531.57 469.779C1525.02 453.789 1533.05 439.141 1516.05 430.476C1499.04 421.822 1457.71 407.834 1453.4 391.844C1449.1 375.855 1381.82 319.903 1360.51 309.918C1339.19 299.922 1275.98 275.949 1275.98 275.949C1275.98 275.949 1317.05 343.152 1337.12 365.134L1337.11 365.113Z" fill="#633BBC"/>
<path fill-rule="evenodd" clip-rule="evenodd" d="M233.902 716.811C233.902 716.811 315.439 789.844 363.904 818.253C412.37 846.651 438.939 834.48 438.939 834.48C438.939 834.48 481.736 846.964 507.916 867.097C534.096 887.229 538.358 902.516 554.586 922.81C570.813 943.095 620.414 937.534 620.414 937.534L733.486 996.212L848.429 1060.11C848.429 1060.11 734.719 993.475 722.7 973.191C710.67 952.907 617.277 879.116 601.05 858.832C584.822 838.548 562.505 842.605 546.277 814.196C530.05 785.798 511.789 753.333 485.414 728.992C459.039 704.651 404.31 668.129 374.874 651.902C345.427 635.674 298.768 619.436 298.768 619.436L217.621 601.175L138.497 557.924H-224.67C-224.67 557.924 -46.5482 680.299 34.4042 710.731C65.0197 722.241 233.902 716.822 233.902 716.822V716.811Z" fill="#633BBC"/>
<path fill-rule="evenodd" clip-rule="evenodd" d="M2939.04 526.712C2939.04 526.712 3049.54 588.279 3063.53 600.265C3077.51 612.252 3054.79 619.954 3061.32 626.986C3077.59 644.49 3161.25 667.976 3161.25 667.976C3161.25 667.976 3175.22 672.725 3178.2 688.617C3181.19 704.509 3199.91 714.797 3199.91 714.797L3237.76 730.787C3237.76 730.787 3157.74 663.714 3151.19 647.735C3144.63 631.746 3134.21 629.864 3117.22 621.209C3100.21 612.555 3043.61 589.826 3039.3 573.836C3035 557.847 2931.98 432.118 2910.66 422.133C2889.34 412.137 2809.12 399.945 2809.12 399.945C2809.12 399.945 2918.97 504.73 2939.04 526.712Z" fill="#633BBC"/>
<path fill-rule="evenodd" clip-rule="evenodd" d="M1067.01 -33.7211C1067.01 -33.7211 1160.37 35.948 1203.41 54.3064C1203.41 54.3064 1257.26 50.2821 1264.54 54.3064C1271.82 58.3308 1303.8 78.1713 1307.11 85.8955C1310.42 93.6088 1312.62 110.15 1319.23 117.874C1325.86 125.587 1385.39 154.256 1406.34 157.566C1427.3 160.876 1478.01 170.797 1487.93 177.417C1497.85 184.038 1494.55 199.465 1500.06 207.189C1505.58 214.902 1538.65 228.144 1551.88 236.961C1565.11 245.777 1606.45 243.581 1618.85 249.088C1631.26 254.605 1657.72 271.135 1657.72 271.135L1667.63 279.952C1667.63 279.952 1662.11 298.7 1667.63 304.206C1673.16 309.724 1696.31 314.127 1696.31 314.127C1696.31 314.127 1678.67 296.482 1678.67 285.458C1678.67 274.435 1667.63 265.607 1667.63 265.607C1667.63 265.607 1612.52 240.249 1604.79 233.629C1597.08 227.008 1527.6 169.671 1522.1 159.751C1516.58 149.831 1504.45 122.266 1497.84 114.542C1491.22 106.829 1428.38 90.2877 1412.94 83.6669C1397.5 77.0462 1377.64 57.2057 1368.27 40.6647C1358.92 24.1237 1341.27 -21.6589 1335.75 -27.6954C1330.24 -33.7319 1318.11 -33.7319 1318.11 -33.7319H1066.99L1067.01 -33.7211Z" fill="#633BBC"/>
<path fill-rule="evenodd" clip-rule="evenodd" d="M1998.24 474.032C1998.24 474.032 2048.27 506.746 2062.26 518.732C2076.25 530.719 2122.2 536.052 2131.2 539.384C2140.2 542.716 2161.77 572.694 2161.77 572.694C2161.77 572.694 2174.2 594.86 2177.17 610.752C2180.16 626.644 2220.06 644.634 2220.06 644.634L2257.91 660.624C2257.91 660.624 2199.25 594.676 2192.71 578.698C2186.15 562.708 2194.18 548.061 2177.18 539.395C2160.18 530.741 2118.84 516.753 2114.54 500.764C2110.23 484.774 2042.95 428.823 2021.64 418.837C2000.33 408.841 1937.12 384.868 1937.12 384.868C1937.12 384.868 1978.18 452.071 1998.25 474.053L1998.24 474.032Z" fill="#633BBC"/>
<path fill-rule="evenodd" clip-rule="evenodd" d="M2010.95 107.932C2010.95 107.932 2077.43 167.476 2116.93 190.626C2156.44 213.777 2178.1 203.857 2178.1 203.857C2178.1 203.857 2212.99 214.037 2234.33 230.448C2255.68 246.859 2252.37 276.631 2265.6 293.172C2278.83 309.713 2333.41 298.138 2333.41 298.138L2415.19 388.48L2469.25 445.33C2469.25 445.33 2410.9 369.245 2401.1 352.715C2391.29 336.174 2323.49 240.249 2310.24 223.708C2297.01 207.167 2278.82 210.478 2265.59 187.327C2252.36 164.176 2237.47 137.704 2215.96 117.863C2194.47 98.012 2149.85 68.2404 2125.85 55.0098C2101.84 41.7791 2063.81 28.5485 2063.81 28.5485L1997.65 13.6627L1933.15 -21.5938H1637.1C1637.1 -21.5938 1782.32 78.1715 1848.31 102.978C1873.28 112.357 2010.94 107.943 2010.94 107.943L2010.95 107.932Z" fill="#633BBC"/>
<path fill-rule="evenodd" clip-rule="evenodd" d="M2272.64 -11.554C2272.64 -11.554 2308.62 39.7134 2334.39 54.5992C2360.15 69.485 2392.72 75.8245 2404.9 90.7103C2417.09 105.596 2464.22 139.63 2464.22 139.63L2531.9 167.617C2531.9 167.617 2439.76 89.7259 2429.67 71.6054C2419.57 53.4958 2392.47 38.6099 2392.47 38.6099L2272.64 -11.554Z" fill="#633BBC"/>
<path fill-rule="evenodd" clip-rule="evenodd" d="M-37.4473 291.151C-37.4473 291.151 78.3181 374.895 101.556 395.039C124.793 415.182 187.214 413.657 207.877 434.795C228.539 455.934 265.592 465.194 291.534 493.917C317.476 522.628 403.394 543.788 432.678 577.671C461.974 611.553 511.792 625.433 536.901 640.73C562.01 656.027 639.825 693.079 639.825 693.079C639.825 693.079 544.83 648.617 529.339 604.154C513.847 559.691 522.642 504.28 522.642 504.28C522.642 504.28 542.548 499.921 522.642 463.106C502.737 426.292 519.364 402.828 494.374 371.952C469.384 341.077 457.43 285.494 474.523 259.562C491.616 233.631 531.438 157.493 522.642 112.197C513.847 66.8906 591.154 33.549 591.154 33.549C591.154 33.549 708.055 44.6701 722.108 63.1908C736.161 81.7224 839.042 112.197 839.042 112.197C839.042 112.197 921.249 116.741 932.457 112.197C943.653 107.654 978.888 137.295 1007.59 163.227C1036.29 189.169 1041.88 173.363 1081.74 201.123C1121.6 228.882 1129.22 270.792 1152.09 291.162C1152.09 291.162 1126.49 246.429 1118.44 201.123C1118.44 201.123 1159.39 205.634 1189.03 213.044C1218.67 220.455 1232.88 218.81 1253.36 234.453C1273.84 250.097 1296.38 259.973 1296.38 259.973C1296.38 259.973 1261.7 228.687 1253.36 211.389C1245.02 194.102 1238.43 176.803 1227.73 170.215C1217.03 163.627 1095.92 133.076 1064.89 118.71C1033.87 104.343 1007.59 57.0028 1007.59 57.0028C1007.59 57.0028 936.578 -42.7625 891.78 -44.277C846.982 -45.7915 768.453 -67.3522 739.861 -87.5064C711.268 -107.661 616.912 -222.171 616.912 -222.171H-21.696L-37.4473 291.151Z" fill="#633BBC"/>
<path fill-rule="evenodd" clip-rule="evenodd" d="M986.934 491.641C986.934 491.641 1036.97 524.355 1050.96 536.342C1064.94 548.328 1110.89 553.662 1119.89 556.994C1128.89 560.326 1150.46 590.303 1150.46 590.303C1150.46 590.303 1162.89 612.469 1165.87 628.361C1168.85 644.253 1208.75 662.244 1208.75 662.244L1246.6 678.233C1246.6 678.233 1187.95 612.285 1181.4 596.307C1174.85 580.318 1182.87 565.67 1165.88 557.005C1148.87 548.35 1107.53 534.362 1103.23 518.373C1098.92 502.384 1031.65 446.432 1010.33 436.447C989.022 426.451 925.811 402.478 925.811 402.478C925.811 402.478 966.877 469.68 986.945 491.663L986.934 491.641Z" fill="#633BBC"/>
</g>
<path d="M2301.88 22.8575C2300.37 22.8575 2299.14 21.4597 2299.14 19.7353C2299.14 18.011 2300.37 16.613 2301.88 16.613C2303.4 16.613 2304.63 18.011 2304.63 19.7353C2304.63 21.4597 2303.4 22.8575 2301.88 22.8575Z" fill="white"/>
<path d="M2216.23 14.545C2216.23 15.6735 2217.05 16.6138 2218.07 16.6138C2219.08 16.6138 2219.91 15.6735 2219.91 14.545C2219.91 13.4165 2219.08 12.4761 2218.07 12.4761C2217.05 12.4761 2216.23 13.4165 2216.23 14.545Z" fill="white"/>
<path d="M2264.74 379.24C2263.38 378.488 2261.73 379.127 2261.05 380.669C2260.37 382.212 2260.94 384.093 2262.33 384.845C2263.72 385.597 2265.34 384.958 2266.01 383.415C2266.69 381.873 2266.13 379.992 2264.74 379.24Z" fill="white"/>
<path d="M2199.46 96.6633C2198.56 96.1743 2197.43 96.5881 2196.98 97.6038C2196.52 98.6194 2196.9 99.8607 2197.8 100.387C2198.71 100.876 2199.83 100.463 2200.28 99.447C2200.74 98.4313 2200.36 97.19 2199.46 96.6633Z" fill="white"/>
<path d="M2584.41 326.018C2582.27 326.507 2580.84 328.839 2581.29 331.284C2581.71 333.729 2583.81 335.271 2585.96 334.82C2588.1 334.331 2589.53 331.999 2589.08 329.554C2588.66 327.146 2586.56 325.566 2584.41 326.018Z" fill="white"/>
<g opacity="0.64">
<path d="M3081.59 212.328C3081.59 213.08 3082.12 213.682 3082.79 213.682C3083.47 213.682 3084 213.08 3084 212.328C3084 211.576 3083.47 210.974 3082.79 210.974C3082.12 210.974 3081.59 211.576 3081.59 212.328Z" fill="white"/>
<path d="M3032.51 151.352C3032.51 151.841 3032.88 152.255 3033.3 152.255C3033.71 152.255 3034.09 151.841 3034.09 151.352C3034.09 150.863 3033.71 150.449 3033.3 150.449C3032.88 150.449 3032.51 150.863 3032.51 151.352Z" fill="white"/>
<path d="M3020.58 281.245C3019.98 280.906 3019.27 281.207 3018.97 281.846C3018.66 282.486 3018.93 283.314 3019.53 283.652C3020.13 283.991 3020.85 283.69 3021.15 283.05C3021.45 282.373 3021.18 281.583 3020.58 281.245Z" fill="white"/>
<path d="M2905.42 170.124C2905.01 169.898 2904.56 170.124 2904.37 170.538C2904.18 170.989 2904.37 171.516 2904.74 171.741C2905.16 171.967 2905.61 171.741 2905.8 171.327C2905.98 170.914 2905.8 170.35 2905.42 170.124Z" fill="white"/>
<path d="M3163.77 276.811C3162.83 277.037 3162.23 278.052 3162.42 279.106C3162.61 280.159 3163.51 280.836 3164.45 280.648C3165.39 280.422 3165.99 279.407 3165.8 278.353C3165.62 277.3 3164.71 276.623 3163.77 276.811Z" fill="white"/>
</g>
<g opacity="0.64">
<path d="M2358.95 220.502C2359.06 219.749 2358.61 219.072 2357.97 218.922C2357.33 218.809 2356.69 219.298 2356.58 220.013C2356.47 220.765 2356.92 221.442 2357.56 221.592C2358.2 221.743 2358.83 221.216 2358.95 220.502Z" fill="white"/>
<path d="M2394.11 229.604C2394.19 229.115 2393.89 228.663 2393.48 228.55C2393.02 228.475 2392.61 228.814 2392.54 229.303C2392.46 229.792 2392.76 230.243 2393.17 230.356C2393.63 230.431 2394.04 230.093 2394.11 229.604Z" fill="white"/>
<path d="M2483.99 228.997C2484.97 229.787 2486.32 229.523 2487 228.432C2487.71 227.342 2487.49 225.837 2486.51 225.047C2485.53 224.257 2484.18 224.52 2483.5 225.611C2482.79 226.702 2483.01 228.207 2483.99 228.997Z" fill="white"/>
<path d="M2346.87 127.844C2347.5 128.371 2348.41 128.22 2348.9 127.468C2349.35 126.753 2349.23 125.738 2348.56 125.211C2347.92 124.684 2347.02 124.835 2346.53 125.587C2346.08 126.302 2346.19 127.318 2346.87 127.844Z" fill="white"/>
<path d="M2287.65 141.238C2288.59 141.238 2289.34 140.335 2289.34 139.245C2289.34 138.154 2288.52 137.326 2287.58 137.364C2286.64 137.364 2285.88 138.266 2285.88 139.357C2285.88 140.448 2286.71 141.276 2287.65 141.238Z" fill="white"/>
<path d="M2579.9 110.773C2579.9 112.127 2580.88 113.218 2582.08 113.218C2583.29 113.218 2584.27 112.127 2584.27 110.773C2584.27 109.418 2583.29 108.327 2582.08 108.327C2580.88 108.327 2579.9 109.418 2579.9 110.773Z" fill="white"/>
<path d="M2658.15 279.596C2658.15 282.304 2660.11 284.486 2662.52 284.486C2664.92 284.486 2666.88 282.304 2666.88 279.596C2666.88 276.887 2664.92 274.706 2662.52 274.706C2660.11 274.706 2658.15 276.887 2658.15 279.596Z" fill="white"/>
</g>
<g opacity="0.64">
<path d="M450.683 21.9683C450.307 21.5545 449.705 21.5545 449.329 21.9683C448.953 22.3821 448.953 23.0968 449.329 23.5106C449.705 23.9244 450.307 23.9244 450.683 23.5106C451.059 23.0968 451.059 22.3821 450.683 21.9683Z" fill="white"/>
</g>
<g opacity="0.64">
<path d="M216.582 179.996C216.018 180.635 215.98 181.651 216.582 182.29C217.146 182.93 218.048 182.967 218.65 182.29C219.214 181.651 219.252 180.635 218.65 179.996C218.048 179.356 217.184 179.319 216.582 179.996Z" fill="white"/>
<path d="M222.064 80.7557C221.688 81.1695 221.688 81.8842 222.064 82.298C222.44 82.7118 223.042 82.7494 223.418 82.298C223.794 81.8842 223.794 81.2071 223.418 80.7557C223.042 80.3043 222.44 80.3043 222.064 80.7557Z" fill="white"/>
<path d="M112.241 178.706C111.978 177.841 111.189 177.389 110.399 177.653C109.647 177.916 109.233 178.856 109.459 179.721C109.722 180.587 110.512 181.038 111.301 180.775C112.053 180.511 112.467 179.571 112.241 178.706Z" fill="white"/>
<path d="M236.354 314.436C235.414 313.684 234.098 313.985 233.459 315.038C232.819 316.092 233.045 317.559 233.985 318.311C234.925 319.063 236.241 318.762 236.88 317.709C237.519 316.656 237.294 315.189 236.354 314.436Z" fill="white"/>
</g>
<g opacity="0.64">
<path d="M1442.57 252.065C1443.18 252.704 1444.19 252.855 1444.83 252.328C1445.47 251.839 1445.51 250.899 1444.87 250.221C1444.27 249.582 1443.25 249.432 1442.61 249.958C1441.97 250.447 1441.94 251.388 1442.57 252.065Z" fill="white"/>
<path d="M1345.84 235.699C1346.25 236.15 1346.93 236.226 1347.34 235.887C1347.76 235.549 1347.79 234.909 1347.34 234.495C1346.93 234.044 1346.25 233.969 1345.84 234.307C1345.42 234.646 1345.39 235.285 1345.84 235.699Z" fill="white"/>
<path d="M1440.22 358.822C1439.4 358.972 1438.91 359.762 1439.17 360.59C1439.43 361.417 1440.34 361.906 1441.16 361.756C1441.99 361.605 1442.48 360.815 1442.22 359.988C1441.95 359.16 1441.05 358.671 1440.22 358.822Z" fill="white"/>
<path d="M1239.23 348.517C1238.67 348.63 1238.36 349.157 1238.55 349.684C1238.74 350.21 1239.34 350.586 1239.87 350.473C1240.43 350.361 1240.73 349.834 1240.55 349.307C1240.36 348.781 1239.76 348.405 1239.23 348.517Z" fill="white"/>
<path d="M1573.94 246.424C1573.22 247.327 1573.45 248.681 1574.5 249.471C1575.55 250.261 1576.98 250.186 1577.7 249.283C1578.41 248.38 1578.19 247.026 1577.13 246.236C1576.08 245.446 1574.65 245.522 1573.94 246.424Z" fill="white"/>
</g>
<g opacity="0.64">
<path d="M976.806 352.301C976.242 352.94 976.204 353.956 976.806 354.595C977.408 355.235 978.272 355.272 978.874 354.595C979.438 353.956 979.476 352.94 978.874 352.301C978.31 351.661 977.408 351.624 976.806 352.301Z" fill="white"/>
<path d="M982.252 253.06C981.876 253.474 981.876 254.151 982.252 254.602C982.628 255.016 983.23 255.054 983.606 254.602C983.982 254.188 983.982 253.474 983.606 253.06C983.23 252.646 982.628 252.608 982.252 253.06Z" fill="white"/>
<path d="M867.608 327.057C867.345 326.192 866.555 325.74 865.766 326.003C865.014 326.267 864.6 327.207 864.826 328.072C865.089 328.938 865.879 329.389 866.668 329.126C867.42 328.862 867.834 327.922 867.608 327.057Z" fill="white"/>
<path d="M860.665 145.1C860.515 144.536 859.951 144.235 859.462 144.423C858.973 144.611 858.672 145.213 858.86 145.815C859.011 146.379 859.575 146.68 860.063 146.492C860.552 146.304 860.853 145.702 860.665 145.1Z" fill="white"/>
<path d="M953.252 443.657C952.312 442.905 950.995 443.205 950.356 444.259C949.717 445.312 949.943 446.779 950.883 447.531C951.823 448.284 953.139 447.983 953.778 446.93C954.417 445.876 954.192 444.409 953.252 443.657Z" fill="white"/>
</g>
<g opacity="0.64">
<path d="M1255.87 104.625C1255.76 105.377 1256.21 106.054 1256.85 106.205C1257.48 106.318 1258.12 105.829 1258.24 105.114C1258.35 104.362 1257.9 103.684 1257.26 103.534C1256.62 103.384 1255.98 103.91 1255.87 104.625Z" fill="white"/>
<path d="M1220.69 95.5262C1220.61 96.0152 1220.91 96.4666 1221.32 96.5794C1221.78 96.6547 1222.19 96.3162 1222.26 95.8272C1222.34 95.3381 1222.04 94.8867 1221.63 94.7739C1221.17 94.6987 1220.76 95.0371 1220.69 95.5262Z" fill="white"/>
<path d="M1130.82 96.1643C1129.84 95.3744 1128.49 95.6377 1127.81 96.7285C1127.09 97.8194 1127.32 99.3241 1128.3 100.114C1129.27 100.904 1130.63 100.641 1131.31 99.5498C1132.02 98.4589 1131.79 96.9543 1130.82 96.1643Z" fill="white"/>
<path d="M1171.72 39.3218C1171.09 38.7951 1170.18 38.9456 1169.69 39.698C1169.24 40.4127 1169.36 41.4284 1170.03 41.955C1170.67 42.4817 1171.57 42.3312 1172.06 41.5788C1172.55 40.8265 1172.4 39.8484 1171.72 39.3218Z" fill="white"/>
<path d="M1351.2 212.626C1350.26 212.626 1349.5 213.529 1349.5 214.62C1349.5 215.711 1350.33 216.538 1351.27 216.501C1352.21 216.501 1352.96 215.598 1352.96 214.507C1352.96 213.416 1352.14 212.589 1351.2 212.626Z" fill="white"/>
<path d="M1066.2 342.413C1064.99 342.413 1064.02 341.318 1064.02 339.968C1064.02 338.618 1064.99 337.523 1066.2 337.523C1067.4 337.523 1068.38 338.618 1068.38 339.968C1068.38 341.318 1067.4 342.413 1066.2 342.413Z" fill="white"/>
<path d="M956.634 45.5307C956.634 42.8222 954.679 40.6405 952.272 40.6405C949.866 40.6405 947.911 42.8222 947.911 45.5307C947.911 48.2391 949.866 50.4209 952.272 50.4209C954.679 50.4209 956.634 48.2391 956.634 45.5307Z" fill="white"/>
</g>
<g opacity="0.64">
<path d="M2528.06 649.329C2527.87 648.614 2527.2 648.125 2526.56 648.276C2525.92 648.426 2525.54 649.104 2525.73 649.818C2525.92 650.533 2526.59 651.022 2527.23 650.872C2527.87 650.721 2528.25 650.044 2528.06 649.329Z" fill="white"/>
<path d="M2564 643.839C2563.89 643.35 2563.44 643.049 2562.99 643.125C2562.53 643.2 2562.31 643.689 2562.42 644.178C2562.53 644.667 2562.99 644.968 2563.44 644.893C2563.89 644.817 2564.11 644.328 2564 643.839Z" fill="white"/>
<path d="M2646.3 607.956C2647.51 608.294 2648.64 607.542 2648.86 606.263C2649.09 604.984 2648.26 603.667 2647.06 603.329C2645.85 602.99 2644.73 603.743 2644.5 605.022C2644.27 606.301 2645.1 607.617 2646.3 607.956Z" fill="white"/>
<path d="M2631.3 676.231C2632.09 676.457 2632.88 675.968 2632.99 675.103C2633.14 674.238 2632.58 673.373 2631.79 673.147C2631 672.921 2630.21 673.41 2630.1 674.275C2629.95 675.141 2630.51 676.006 2631.3 676.231Z" fill="white"/>
<path d="M2397.59 587.642C2398.45 587.228 2398.79 586.138 2398.34 585.16C2397.89 584.181 2396.84 583.73 2395.97 584.106C2395.11 584.52 2394.77 585.611 2395.22 586.589C2395.67 587.567 2396.72 588.018 2397.59 587.642Z" fill="white"/>
<path d="M2606.82 359.416C2607.34 360.657 2608.7 361.297 2609.79 360.807C2610.88 360.318 2611.37 358.964 2610.8 357.723C2610.24 356.482 2608.92 355.842 2607.83 356.331C2606.74 356.82 2606.25 358.174 2606.82 359.416Z" fill="white"/>
</g>
<g opacity="0.64">
<path d="M1206.75 609.747C1206.45 608.129 1205.32 607.038 1204.27 607.377C1203.21 607.678 1202.57 609.295 1202.91 610.913C1203.25 612.53 1204.34 613.621 1205.39 613.283C1206.45 612.944 1207.09 611.364 1206.75 609.747Z" fill="white"/>
<path d="M1265.67 597.368C1265.49 596.277 1264.73 595.562 1264.02 595.788C1263.3 596.014 1262.89 597.067 1263.12 598.158C1263.3 599.249 1264.06 599.964 1264.77 599.738C1265.49 599.512 1265.9 598.459 1265.67 597.368Z" fill="white"/>
<path d="M1400.7 516.01C1402.65 516.8 1404.53 515.069 1404.87 512.173C1405.21 509.276 1403.89 506.304 1401.94 505.514C1399.98 504.724 1398.1 506.455 1397.76 509.351C1397.43 512.248 1398.74 515.22 1400.7 516.01Z" fill="white"/>
<path d="M1376.07 670.759C1377.39 671.285 1378.63 670.119 1378.85 668.201C1379.08 666.282 1378.22 664.289 1376.9 663.762C1375.58 663.235 1374.34 664.401 1374.12 666.32C1373.89 668.238 1374.76 670.232 1376.07 670.759Z" fill="white"/>
<path d="M793.541 550.05C794.97 549.147 795.534 546.627 794.782 544.407C794.03 542.188 792.3 541.135 790.871 542.037C789.443 542.94 788.879 545.461 789.631 547.68C790.383 549.899 792.112 550.953 793.541 550.05Z" fill="white"/>
</g>
<g opacity="0.64">
<path d="M1841.88 376.907C1842.52 376.493 1842.75 375.703 1842.41 375.139C1842.07 374.575 1841.28 374.424 1840.64 374.838C1840 375.252 1839.78 376.042 1840.12 376.606C1840.45 377.17 1841.24 377.321 1841.88 376.907Z" fill="white"/>
<path d="M1858.39 409.146C1858.8 408.883 1858.95 408.357 1858.72 407.98C1858.5 407.604 1857.97 407.529 1857.56 407.792C1857.14 408.056 1856.99 408.582 1857.22 408.958C1857.45 409.335 1857.97 409.41 1858.39 409.146Z" fill="white"/>
<path d="M1918.55 475.574C1918.59 476.816 1919.68 477.643 1920.96 477.455C1922.24 477.267 1923.25 476.063 1923.18 474.822C1923.14 473.581 1922.05 472.753 1920.77 472.941C1919.49 473.129 1918.48 474.333 1918.55 475.574Z" fill="white"/>
<path d="M1848.69 482.876C1848.69 483.703 1849.44 484.268 1850.3 484.117C1851.17 483.967 1851.81 483.214 1851.81 482.387C1851.81 481.559 1851.06 480.995 1850.19 481.145C1849.33 481.296 1848.69 482.048 1848.69 482.876Z" fill="white"/>
<path d="M1859.64 234.3C1860.28 234.977 1861.49 234.977 1862.28 234.224C1863.07 233.51 1863.18 232.344 1862.54 231.629C1861.9 230.952 1860.7 230.952 1859.91 231.704C1859.12 232.419 1859 233.585 1859.64 234.3Z" fill="white"/>
<path d="M2143.2 360.132C2142.19 361.035 2142 362.465 2142.79 363.368C2143.58 364.27 2145.05 364.27 2146.06 363.368C2147.08 362.465 2147.26 361.035 2146.47 360.132C2145.69 359.23 2144.22 359.23 2143.2 360.132Z" fill="white"/>
</g>
<g opacity="0.64">
<path d="M551.377 523.351C551.189 522.637 550.512 522.148 549.873 522.298C549.234 522.448 548.857 523.126 549.045 523.84C549.233 524.555 549.91 525.044 550.55 524.894C551.189 524.743 551.565 524.066 551.377 523.351Z" fill="white"/>
<path d="M587.312 517.9C587.199 517.411 586.748 517.11 586.297 517.186C585.846 517.261 585.62 517.75 585.733 518.239C585.845 518.728 586.297 519.029 586.748 518.954C587.199 518.878 587.425 518.389 587.312 517.9Z" fill="white"/>
<path d="M669.621 481.967C670.824 482.306 671.952 481.553 672.178 480.275C672.403 478.996 671.576 477.679 670.373 477.34C669.17 477.002 668.042 477.754 667.816 479.033C667.59 480.312 668.418 481.629 669.621 481.967Z" fill="white"/>
<path d="M420.921 461.662C421.785 461.248 422.124 460.157 421.673 459.179C421.221 458.201 420.169 457.749 419.304 458.126C418.439 458.539 418.1 459.63 418.552 460.608C419.003 461.586 420.056 462.038 420.921 461.662Z" fill="white"/>
</g>
<path d="M1987.52 148.007C1986.43 145.562 1983.8 144.584 1981.62 145.825C1979.44 147.067 1978.58 150.039 1979.67 152.484C1980.76 154.929 1983.39 155.907 1985.57 154.665C1987.75 153.424 1988.62 150.452 1987.52 148.007Z" fill="white"/>
<path d="M1673.71 150.905C1675.26 150.905 1676.46 149.475 1676.46 147.745C1676.46 146.014 1675.18 144.66 1673.68 144.66C1672.13 144.66 1670.93 146.09 1670.93 147.82C1670.93 149.55 1672.21 150.905 1673.71 150.905Z" fill="white"/>
<path d="M1969.6 249.049C1970.62 249.049 1971.44 248.108 1971.4 246.942C1971.4 245.814 1970.54 244.873 1969.52 244.911C1968.51 244.911 1967.68 245.851 1967.72 247.017C1967.72 248.146 1968.58 249.086 1969.6 249.049Z" fill="white"/>
<path d="M1344.85 264.469C1343.87 262.287 1341.5 261.422 1339.54 262.512C1337.59 263.603 1336.84 266.274 1337.81 268.456C1338.79 270.638 1341.16 271.503 1343.12 270.412C1345.07 269.321 1345.82 266.65 1344.85 264.469Z" fill="white"/>
<path d="M1040.97 535.761C1042.1 535.761 1043 534.708 1043 533.429C1043 532.15 1042.06 531.134 1040.93 531.134C1039.81 531.134 1038.9 532.187 1038.9 533.466C1038.9 534.745 1039.84 535.761 1040.97 535.761Z" fill="white"/>
<path d="M1167.63 151.548C1169.81 151.548 1171.54 149.517 1171.5 147.072C1171.5 144.627 1169.69 142.671 1167.51 142.708C1165.33 142.746 1163.6 144.74 1163.64 147.185C1163.64 149.63 1165.44 151.586 1167.63 151.548Z" fill="white"/>
<path d="M442.016 282.983C443.031 282.08 443.22 280.425 442.43 279.296C441.64 278.168 440.174 277.942 439.159 278.845C438.144 279.748 437.955 281.403 438.745 282.531C439.535 283.66 441.001 283.886 442.016 282.983Z" fill="white"/>
<path d="M790.366 798.1C791.494 798.1 792.396 797.046 792.396 795.767C792.396 794.489 791.456 793.473 790.328 793.473C789.2 793.473 788.298 794.526 788.298 795.805C788.298 797.084 789.238 798.1 790.366 798.1Z" fill="white"/>
<path d="M886.913 391.311C889.094 391.311 890.824 389.28 890.786 386.835C890.786 384.39 888.981 382.434 886.8 382.471C884.62 382.509 882.89 384.503 882.927 386.948C882.927 389.393 884.732 391.349 886.913 391.311Z" fill="white"/>
<path d="M191.374 545.319C192.389 544.416 192.577 542.761 191.787 541.632C190.998 540.504 189.531 540.278 188.516 541.181C187.501 542.084 187.313 543.739 188.103 544.868C188.892 545.996 190.359 546.222 191.374 545.319Z" fill="white"/>
<g opacity="0.4" filter="url(#filter0_f_6_421)">
<ellipse cx="1567.05" cy="29.9556" rx="1473.44" ry="742.648" fill="#633BBC"/>
</g>
<rect opacity="0.8" width="3195.26" height="1617.6" transform="matrix(1 0 0 -1 -0.00140381 1617.6)" fill="url(#paint0_linear_6_421)"/>
</g>
<defs>
<filter id="filter0_f_6_421" x="-655.279" y="-1461.58" width="4444.66" height="2983.07" filterUnits="userSpaceOnUse" color-interpolation-filters="sRGB">
<feFlood flood-opacity="0" result="BackgroundImageFix"/>
<feBlend mode="normal" in="SourceGraphic" in2="BackgroundImageFix" result="shape"/>
<feGaussianBlur stdDeviation="374.444" result="effect1_foregroundBlur_6_421"/>
</filter>
<linearGradient id="paint0_linear_6_421" x1="1597.63" y1="0" x2="1597.63" y2="1617.6" gradientUnits="userSpaceOnUse">
<stop stop-color="#121214"/>
<stop offset="1" stop-color="#121214" stop-opacity="0"/>
</linearGradient>
<clipPath id="clip0_6_421">
<rect width="3195.26" height="1348" fill="white"/>
</clipPath>
</defs>
</svg>
